<svg xmlns="http://www.w3.org/2000/svg" viewBox="0 0 400 400" fill="none" shape-rendering="auto" width="80" height="80"><desc>"Adventurer Neutral" by "Lisa Wischofsky", licensed under "CC BY 4.0". / Remix of the original. - Created with dicebear.com</desc><metadata xmlns:dc="http://purl.org/dc/elements/1.1/" xmlns:cc="http://creativecommons.org/ns#" xmlns:rdf="http://www.w3.org/1999/02/22-rdf-syntax-ns#"><rdf:RDF><cc:Work><dc:title>Adventurer Neutral</dc:title><dc:creator><cc:Agent rdf:about="https://www.instagram.com/lischi_art/"><dc:title>Lisa Wischofsky</dc:title></cc:Agent></dc:creator><dc:source>https://www.figma.com/community/file/1184595184137881796</dc:source><cc:license rdf:resource="https://creativecommons.org/licenses/by/4.0/" /></cc:Work></rdf:RDF></metadata><mask id="viewboxMask"><rect width="400" height="400" rx="200" ry="200" x="0" y="0" fill="#fff" /></mask><g mask="url(#viewboxMask)"><rect fill="#763900" width="400" height="400" x="0" y="0" /><g transform="translate(-279 -322)"><path d="M556 424.07a65.28 65.28 0 0 1 38.21 11.72 66.38 66.38 0 0 1 25.55 35.69c2.03 8.44 3.26 17.76 1.73 26.36-.34 2.67-3.16 3.58-5.48 3.72-22.92 1.12-45.4 3.72-68.02 6.37-13.15.92-26.15 2.81-39.22 4.54-4.57.55-8.58 1.7-13.07-.02-4.7-13.26-5.45-27.76-1.52-41.31a65.08 65.08 0 0 1 25.49-35.44A64.79 64.79 0 0 1 556 424.07Z" fill="#000"/><path d="M566.19 430.48a59.9 59.9 0 0 1 38.69 23.59c7.72 10.54 11.98 23.86 11.5 36.93-.17 1.36.17 3.47-.68 4.57-4.17.7-8.5.77-12.7 1.15-18.38 1.14-36.61 3.35-54.88 5.53 1.29-3.37 2.5-6.57 2.63-10.23.4-9.56-5.03-18.9-13.67-23.1-7.93-4.11-18.77-3.17-25.87 2.29-6.37 4.73-10.35 12.82-9.79 20.8 0 6 2.59 11.22 6.37 15.73-2.44.23-4.87.5-7.3.75a58.83 58.83 0 0 1 1.85-43.11 59.17 59.17 0 0 1 32.69-31.45c9.91-4.07 20.61-4.84 31.16-3.45Z" fill="#fff"/><path d="M415.92 455.07a54.98 54.98 0 0 1 22.55 27.5 55.8 55.8 0 0 1 1.3 34.35c-3.95 1.23-7.7.76-11.77.75-25.4-.28-50.64-.3-76 1.43-5.57-.31-13 1.8-17.82-1.36-1.63-6.9-2.98-13.6-2.05-20.72a55.18 55.18 0 0 1 14.86-33.04 55.09 55.09 0 0 1 32-16.6 55.24 55.24 0 0 1 36.93 7.69Z" fill="#000"/><path d="M410.45 458.52c18.96 10.1 29.6 32.88 24.63 53.87-1.89.03-3.78.06-5.67.13 2.51-4.85 3.8-10.1 2.83-15.56-1.25-8.23-7.5-15.16-15.4-17.62a23.63 23.63 0 0 0-14.04.47c-8.31 3.06-14.47 11.22-14.46 20.19-.29 4.37 1.04 8.24 2.82 12.14-15.4.07-30.77 1.03-46.16 1.93-1.75-.18-5.82.57-6.13-1.9-4.43-18.7 3.54-39.04 19.11-50.2 15.1-11.13 36.05-12.56 52.48-3.45Z" fill="#fff"/></g><g transform="translate(-279 -322)"><path d="M456.01 380.37c2.26-.07 2.85 1.7 2.65 3.64-.5 4.68-.77 9.78-2.32 14.23-1.33.39-2.66.58-4.03.82-1.12-4.8 0-10.22.7-15.09.37-1.71.78-3.82 3-3.6ZM476.79 386.65c.03 3.21-.36 6.36-.67 9.55 41.69.52 83.32.38 125 .75 2.14.04 3.97.86 5.9 1.64-.6 1.48-.22 3.83-2.24 4.1-8.05 1.3-16.58.5-24.74.87-17.35.62-34.7 1-52.06 1.53-17.03.2-34 1.25-51.05 1.42-3.3.39-6.05-2.72-7.2-5.47.02-4.5 1.02-9.15 2.06-13.5 1.28-2.48 2.83-1.67 5-.9ZM439.84 392.18c-.1 4.87-.05 10.81-2.28 15.24-3.22 1.5-7.12 1.79-10.59 2.47-25.65 4.69-51.32 9.34-76.96 14.08-4.24.69-8.7 2.15-13 2.04-2.62-.48-3.32-3.75-.86-5 3.2-1.42 6.95-1.75 10.33-2.59 29.1-6.7 58.15-13.6 87.24-20.32.4-1.91.8-3.81 1.27-5.7 1.61-.21 3.23-.24 4.85-.23Z" fill="#000"/></g><g transform="translate(-279 -322)"><path d="M521.18 567.25c1.55-.38 3.33-1 4.93-.74 2 .78 2.04 3 1.05 4.64-4.12 2.62-10 2.81-14.26 4.89 3.42 13.46 3.76 27.5 0 40.93-3.26 12.19-10.2 24.02-20.7 31.3a35.76 35.76 0 0 1-24.22 6.54c-11.52-1.1-21.7-8.19-28.53-17.28-9.5-12.6-13.35-27.92-13.48-43.53.34-5.62.98-11.21 2.11-16.73-2.4-.78-5.59-1.13-7.5-2.84-.56-1.23-.2-2.85-.25-4.18 4.52-.02 8.3 1.66 12.66 2.56 29.55 5.95 59.5 3.04 88.2-5.56Z" fill="#000"/><path d="M506.94 577.11c5.23 17.71 3.27 38.43-6.69 54.17-4.13 6.48-9.68 11.96-16.73 15.17a29.31 29.31 0 0 1-25.4-.56c-8.06-4.02-14.57-11.42-18.7-19.32-7.58-14.67-9.44-32-5.52-48.03 10.46 2.5 21.07 3.05 31.77 3.27-1 6.74-.96 13.39-1.18 20.18 0 1.9-.16 4.1.5 5.92 1.09 1.71 4.65 1.2 4.75-1.06.58-8.4-.13-16.75 1.5-25.13 12-.25 24-2.21 35.7-4.62Z" fill="#EA869E"/></g><g transform="translate(-279 -322)"></g></g></svg>